<?xml version="1.0" encoding="UTF-8"?>
<!DOCTYPE svg PUBLIC "-//W3C//DTD SVG 1.1//EN" "http://www.w3.org/Graphics/SVG/1.1/DTD/svg11.dtd">
<svg version="1.1" xmlns="http://www.w3.org/2000/svg" xmlns:xlink="http://www.w3.org/1999/xlink" x="0px" y="0px" width="96" height="96" viewBox="0, 0, 96, 96">
  <g id="BACKGROUND">
    <path d="M0,64.865 L0,31.135 C0,3.892 3.888,0 31.103,0 L64.897,0 C92.112,0 96,3.892 96,31.135 L96,64.865 C96,92.108 92.112,96 64.897,96 L31.103,96 C3.888,96 0,92.108 0,64.865 z" fill="url(#Gradient_1)"/>
  </g>
  <g id="p">
    <text transform="matrix(1, 0, 0, 1, 37.996, 48)">
      <tspan x="-17.22" y="22" font-family="HelveticaNeue-Light" font-size="60" fill="#FFFFFF">p</tspan>
    </text>
  </g>
  <g id="T">
    <text transform="matrix(1, 0, 0, 1, 67.043, 51.5)">
      <tspan x="-9.99" y="22.5" font-family="HelveticaNeue-Medium" font-size="60" fill="#FFFFFF">t</tspan>
    </text>
  </g>
  <g id="BADGE">
    <g opacity="0.6">
      <path d="M26,10 C26,19.941 17.941,28 8,28 C-1.941,28 -10,19.941 -10,10 C-10,0.059 -1.941,-8 8,-8 C17.941,-8 26,0.059 26,10 z" fill="#000000" opacity="0"/>
    </g>
    <g>
      <path d="M26,9 C26,18.941 17.941,27 8,27 C-1.941,27 -10,18.941 -10,9 C-10,-0.941 -1.941,-9 8,-9 C17.941,-9 26,-0.941 26,9 z" fill="#F5F5F5" opacity="0"/>
      <path d="M23,9 C23,17.284 16.284,24 8,24 C-0.284,24 -7,17.284 -7,9 C-7,0.716 -0.284,-6 8,-6 C16.284,-6 23,0.716 23,9 z" fill="#DD4814" opacity="0"/>
      <path d="M14.511,17.909 C13.956,18.315 8.718,15.626 8.031,15.628 C7.344,15.63 2.123,18.352 1.566,17.95 C1.009,17.548 1.948,11.735 1.733,11.082 C1.519,10.43 -2.683,6.305 -2.473,5.651 C-2.262,4.997 3.556,4.094 4.11,3.688 C4.665,3.283 7.289,-1.988 7.976,-1.99 C8.663,-1.993 11.32,3.262 11.877,3.664 C12.434,4.066 18.258,4.933 18.472,5.585 C18.687,6.238 14.511,10.389 14.3,11.043 C14.09,11.697 15.065,17.504 14.511,17.909 z" fill="#F5F5F5" opacity="0"/>
    </g>
  </g>
  <defs>
    <linearGradient id="Gradient_1" gradientUnits="userSpaceOnUse" x1="144" y1="970.295" x2="0" y2="970.295" gradientTransform="matrix(0, -0.667, 0.666, 0, -598.26, 96)">
      <stop offset="0" stop-color="#0093FF"/>
      <stop offset="1" stop-color="#000542" stop-opacity="0.959"/>
    </linearGradient>
  </defs>
</svg>
